# xmcd
#
# Track frame offsets: 
#        150
#        21260
#        36959
#        55576
#        78178
#        102516
#        122544
#        141910
#        164078
#        187305
#
# Disc length: 2814 seconds
#
# Revision: 0
# Processed by: cddbd v1.5.2PL0 Copyright (c) Steve Scherf et al.
# Submitted via: ExactAudioCopy v1.0b1
#
DISCID=8a0afc0a
DTITLE=Face To Face - Obvio
DYEAR=2008
DGENRE=
TTITLE0=Bendeciré tu nombre
TTITLE1=Eres tú
TTITLE2=Sólo para ti
TTITLE3=En tus atrios
TTITLE4=Qué puedo darte
TTITLE5=Fue tu misericordia
TTITLE6=Al único que adoro
TTITLE7=El amor de mi vida
TTITLE8=Obvio
TTITLE9=A cada latido
EXTD=
EXTT0=
EXTT1=
EXTT2=
EXTT3=
EXTT4=
EXTT5=
EXTT6=
EXTT7=
EXTT8=
EXTT9=
PLAYORDER=
